# xmcd
#
# Track frame offsets: 
#        150
#        21375
#        45525
#        67950
#        96750
#        117150
#        139275
#        163950
#        187800
#        207600
#        231750
#        255375
#        270750
#        287925
#
# Disc length: 4066 seconds
#
# Revision: 0
# Processed by: cddbd v1.5.2PL0 Copyright (c) Steve Scherf et al.
# Submitted via: ExactAudioCopy v1.1
#
DISCID=c80fe00e
DTITLE=鍾玉鳳&陳思銘 - 藍‧掉(Fade to Blue)
DYEAR=2015
DGENRE=Instrumental
TTITLE0=茶與威士忌
TTITLE1=西瓦
TTITLE2=夜之城
TTITLE3=七拍子
TTITLE4=直到
TTITLE5=黑莓盛開
TTITLE6=傳教士藍調
TTITLE7=惡魔奪走我的女人
TTITLE8=當你安撫我入眠
TTITLE9=沖繩媽媽
TTITLE10=直白藍調
TTITLE11=風入松
TTITLE12=無國界
TTITLE13=藍‧掉
EXTD=
EXTT0=
EXTT1=
EXTT2=
EXTT3=
EXTT4=
EXTT5=
EXTT6=
EXTT7=
EXTT8=
EXTT9=
EXTT10=
EXTT11=
EXTT12=
EXTT13=
PLAYORDER=
